Coordinates
version=1
nRows=13
nColumns=63
inDegrees=yes

Units are S.I. units (second, meters, Newtons, ...)
If the header above contains a line with 'inDegrees', this indicates whether rotational values are in degrees (yes) or radians (no).

endheader
time	pelvis_tilt	pelvis_list	pelvis_rotation	pelvis_tx	pelvis_ty	pelvis_tz	hip_flexion_r	hip_adduction_r	hip_rotation_r	knee_angle_r	knee_angle_r_beta	ankle_angle_r	subtalar_angle_r	mtp_angle_r	hip_flexion_l	hip_adduction_l	hip_rotation_l	knee_angle_l	knee_angle_l_beta	ankle_angle_l	subtalar_angle_l	mtp_angle_l	L5_S1_Flex_Ext	L5_S1_Lat_Bending	L5_S1_axial_rotation	L4_L5_Flex_Ext	L4_L5_Lat_Bending	L4_L5_axial_rotation	L3_L4_Flex_Ext	L3_L4_Lat_Bending	L3_L4_axial_rotation	L2_L3_Flex_Ext	L2_L3_Lat_Bending	L2_L3_axial_rotation	L1_L2_Flex_Ext	L1_L2_Lat_Bending	L1_L2_axial_rotation	L1_T12_Flex_Ext	L1_T12_Lat_Bending	L1_T12_axial_rotation	Abs_r3	Abs_r2	Abs_r1	Abs_t1	Abs_t2	neck_flexion	neck_bending	neck_rotation	arm_flex_r	arm_add_r	arm_rot_r	elbow_flex_r	pro_sup_r	wrist_flex_r	wrist_dev_r	arm_flex_l	arm_add_l	arm_rot_l	elbow_flex_l	pro_sup_l	wrist_flex_l	wrist_dev_l
0.000000	5.507823	-1.074063	92.335244	0.117771	0.751663	0.868027	8.538130	1.613249	-8.367120	10.605606	0.185103	30.926921	15.782521	0.000000	8.759956	-0.628574	1.869262	11.337866	0.197883	29.785761	-5.380711	0.000000	0.294287	0.410903	0.462954	0.546520	0.546501	0.491889	0.483484	0.999070	0.491889	0.336341	0.999070	0.405085	0.273275	0.837914	0.376150	0.168156	0.636489	0.347216	2.102063	4.648220	2.574813	0.000000	0.000000	14.718038	-6.070379	12.996180	21.313587	-17.569043	52.231831	73.871465	83.206686	7.622338	15.574180	23.179769	-20.126045	57.723510	77.167987	80.584506	-14.201432	21.428272
0.017241	4.983301	-0.907539	92.583586	0.118229	0.751756	0.866944	8.132110	1.029966	-8.300657	10.392005	0.181375	31.355241	15.763664	0.000000	8.339715	-0.043904	2.659048	10.821427	0.188870	29.857045	-5.402847	0.000000	0.285764	0.322858	0.444648	0.530692	0.429401	0.472438	0.469481	0.784996	0.472438	0.326599	0.784996	0.389067	0.265360	0.658371	0.361276	0.163285	0.500107	0.333486	2.041182	3.652230	2.472996	0.000000	0.000000	13.993453	-4.354151	11.771108	21.312385	-17.325637	51.756399	73.725761	87.951722	8.363125	15.304181	23.157580	-20.239039	57.227340	77.435169	85.219128	-9.645200	22.414601
0.034483	4.573123	-0.782203	92.757309	0.118698	0.751835	0.866118	7.827937	0.581223	-8.225738	10.226804	0.178491	31.703490	15.764151	0.000000	8.009668	0.404408	3.243648	10.425746	0.181964	29.903018	-5.419782	0.000000	0.279593	0.253645	0.436494	0.519232	0.337347	0.463775	0.459343	0.616711	0.463775	0.319547	0.616711	0.381932	0.259630	0.517232	0.354651	0.159759	0.392895	0.327370	1.997104	2.869278	2.427648	0.000000	0.000000	13.374234	-3.029088	10.803710	21.240138	-17.127631	51.362876	73.567465	91.150411	8.867168	15.230541	23.204386	-20.259664	56.875960	77.503841	88.510476	-5.882370	23.227897
0.051724	4.267486	-0.695785	92.864381	0.119173	0.751897	0.865531	7.618012	0.255154	-8.143227	10.105442	0.176373	31.977651	15.779483	0.000000	7.764667	0.728266	3.641398	10.141113	0.176996	29.927501	-5.429013	0.000000	0.275506	0.201555	0.437323	0.511642	0.268068	0.464656	0.452629	0.490061	0.464656	0.314876	0.490061	0.382658	0.255835	0.411011	0.355325	0.157424	0.312209	0.327992	1.967913	2.280030	2.432259	0.000000	0.000000	12.850881	-2.056192	10.071512	21.102470	-16.969272	51.040356	73.395898	92.960321	9.159621	15.329891	23.310149	-20.198037	56.659318	77.391617	90.578175	-2.836993	23.887175
0.068966	4.056587	-0.646012	92.912766	0.119649	0.751941	0.865167	7.494738	0.039894	-8.053985	10.023360	0.174941	32.183708	15.805159	0.000000	7.599567	0.939569	3.870638	9.957820	0.173797	29.934316	-5.428034	0.000000	0.273235	0.164880	0.445965	0.507425	0.219290	0.473838	0.448898	0.400889	0.473838	0.312280	0.400889	0.390219	0.253726	0.336223	0.362347	0.156127	0.255399	0.334474	1.951691	1.865154	2.480323	0.000000	0.000000	12.413892	-1.396467	9.552044	20.905007	-16.844813	50.777938	73.210382	93.539020	9.265638	15.578863	23.464834	-20.064275	56.567360	77.116114	91.541847	-0.433121	24.411448
0.086207	3.930622	-0.630614	92.910432	0.120123	0.751967	0.865007	7.450515	-0.076423	-7.958875	9.975996	0.174114	32.327643	15.836681	0.000000	7.509223	1.050221	3.949703	9.866159	0.172197	29.927283	-5.414341	0.000000	0.272511	0.141910	0.461249	0.506081	0.188741	0.490078	0.447709	0.345041	0.490078	0.311453	0.345041	0.403593	0.253054	0.289384	0.374765	0.155713	0.219819	0.345937	1.946522	1.605319	2.565331	0.000000	0.000000	12.053769	-1.010917	9.222831	20.653373	-16.748504	50.564716	73.010237	93.044076	9.210373	15.954088	23.658405	-19.868492	56.590034	76.694947	91.521117	1.405196	24.819733
0.103448	3.879788	-0.647320	92.865343	0.120590	0.751973	0.865036	7.477744	-0.105664	-7.858758	9.958792	0.173814	32.415438	15.869549	0.000000	7.488489	1.072122	3.896932	9.856421	0.172027	29.910224	-5.385430	0.000000	0.273067	0.130937	0.482007	0.507112	0.174147	0.512132	0.448622	0.318361	0.512132	0.312088	0.318361	0.421756	0.253570	0.267008	0.391630	0.156030	0.202822	0.361505	1.950489	1.481190	2.680776	0.000000	0.000000	11.761010	-0.860546	9.061402	20.353192	-16.674594	50.389789	72.794785	91.633056	9.018980	16.432200	23.880825	-19.620807	56.717285	76.145733	90.635609	2.753907	25.131044
0.120690	3.894281	-0.693860	92.785467	0.121047	0.751958	0.865234	7.568828	-0.059695	-7.754498	9.967185	0.173960	32.453077	15.899262	0.000000	7.532220	1.017175	3.730661	9.918897	0.173117	29.886961	-5.338795	0.000000	0.274633	0.130252	0.507066	0.510021	0.173235	0.538758	0.451195	0.316695	0.538758	0.313878	0.316695	0.443683	0.255024	0.265610	0.411991	0.156925	0.201760	0.380299	1.961676	1.473437	2.820148	0.000000	0.000000	11.526115	-0.906358	9.045284	20.010089	-16.617335	50.242251	72.563346	89.463529	8.716614	16.989829	24.122059	-19.331334	56.939060	75.486087	89.004947	3.688959	25.364395
0.137931	3.964298	-0.767961	92.678768	0.121488	0.751920	0.865586	7.716167	0.049620	-7.646956	9.996616	0.174474	32.446543	15.921323	0.000000	7.635270	0.897281	3.469228	10.043880	0.175299	29.861314	-5.271931	0.000000	0.276942	0.138145	0.535258	0.514308	0.183733	0.568711	0.454987	0.335886	0.568711	0.316517	0.335886	0.468350	0.257168	0.281706	0.434897	0.158244	0.213987	0.401443	1.978166	1.562725	2.976942	0.000000	0.000000	11.339584	-1.109356	9.152004	19.629689	-16.570975	50.111200	72.315242	86.693062	8.328428	17.603609	24.372070	-19.010191	57.245307	74.733626	86.748755	4.286303	25.538802
0.155172	4.080035	-0.867353	92.553213	0.121910	0.751857	0.866073	7.912163	0.210413	-7.536994	10.042524	0.175275	32.401818	15.931230	0.000000	7.792493	0.724341	3.130971	10.221661	0.178402	29.837105	-5.182335	0.000000	0.279724	0.152908	0.565411	0.519476	0.203367	0.600749	0.459559	0.371780	0.600749	0.319697	0.371780	0.494735	0.259752	0.311810	0.459397	0.159834	0.236854	0.424058	1.998043	1.729724	3.144648	0.000000	0.000000	11.191916	-1.430544	9.359091	19.217615	-16.529767	49.985732	72.049794	83.479224	7.879576	18.250170	24.620823	-18.667494	57.625972	73.905965	83.986656	4.621887	25.673279
0.172414	4.231689	-0.989765	92.416768	0.122308	0.751770	0.866678	8.149217	0.410818	-7.425476	10.100350	0.176284	32.324886	15.924484	0.000000	7.998744	0.510259	2.734226	10.442532	0.182257	29.818154	-5.067500	0.000000	0.282713	0.172831	0.596357	0.525026	0.229865	0.633629	0.464469	0.420221	0.633629	0.323112	0.420221	0.521812	0.262527	0.352437	0.484540	0.161542	0.267715	0.447268	2.019389	1.955100	3.316758	0.000000	0.000000	11.073612	-1.830926	9.644072	18.779493	-16.487959	49.854943	71.766323	79.979582	7.395212	18.906146	24.858281	-18.313359	58.071001	73.020720	80.838274	4.771659	25.786841
0.189655	4.382416	-1.131986	92.272386	0.122756	0.751622	0.867432	8.410132	0.616934	-7.276814	10.150625	0.177162	32.195326	15.836041	0.000000	8.255671	0.278928	2.190569	10.698434	0.186723	29.821582	-4.791956	0.000000	0.283778	0.190526	0.630129	0.527003	0.253400	0.669512	0.466218	0.463245	0.669512	0.324329	0.463245	0.551363	0.263516	0.388521	0.511980	0.162151	0.295125	0.472597	2.026995	2.155269	3.504590	0.000000	0.000000	11.095202	-2.224719	9.915025	18.369468	-16.422545	49.729579	71.456201	76.502518	6.963577	19.638231	25.306844	-17.980866	58.944936	72.060359	77.513951	5.066657	26.203958
0.206897	4.544140	-1.299164	92.144826	0.123161	0.751464	0.868260	8.694572	0.833617	-7.122040	10.188275	0.177819	32.055107	15.715021	0.000000	8.553422	0.045857	1.722175	10.969405	0.191452	29.822041	-4.593712	0.000000	0.284514	0.208346	0.662258	0.528372	0.277100	0.703649	0.467429	0.506572	0.703649	0.325171	0.506572	0.579476	0.264200	0.424859	0.538085	0.162571	0.322728	0.496694	2.032257	2.356849	3.683281	0.000000	0.000000	10.997166	-2.581693	10.176713	17.864011	-16.346158	49.500914	71.154053	73.010641	6.618722	20.380453	25.724196	-17.673685	59.801653	71.085967	74.791106	5.992896	27.024101
